<svg width="19" height="21" viewBox="0 0 19 21" fill="none" xmlns="http://www.w3.org/2000/svg">
<path d="M17.3125 4.60899L13.8304 1.12685C13.4174 0.713902 12.5915 0.36792 12 0.36792H2.00002C1.4085 0.36792 0.928589 0.847831 0.928589 1.43935V19.2965C0.928589 19.888 1.4085 20.3679 2.00002 20.3679H17C17.5915 20.3679 18.0714 19.888 18.0714 19.2965V6.43935C18.0714 5.84783 17.7255 5.02194 17.3125 4.60899ZM12.3572 1.88578C12.5469 1.95274 12.7366 2.05319 12.8148 2.13131L16.3081 5.62462C16.3862 5.70274 16.4866 5.89247 16.5536 6.08221H12.3572V1.88578ZM16.6429 18.9394H2.35716V1.79649H10.9286V6.43935C10.9286 7.03087 11.4085 7.51078 12 7.51078H16.6429V18.9394ZM5.2143 9.29649V10.0108C5.2143 10.2117 5.37055 10.3679 5.57145 10.3679H13.4286C13.6295 10.3679 13.7857 10.2117 13.7857 10.0108V9.29649C13.7857 9.0956 13.6295 8.93935 13.4286 8.93935H5.57145C5.37055 8.93935 5.2143 9.0956 5.2143 9.29649ZM13.4286 11.7965H5.57145C5.37055 11.7965 5.2143 11.9527 5.2143 12.1536V12.8679C5.2143 13.0688 5.37055 13.2251 5.57145 13.2251H13.4286C13.6295 13.2251 13.7857 13.0688 13.7857 12.8679V12.1536C13.7857 11.9527 13.6295 11.7965 13.4286 11.7965ZM13.4286 14.6536H5.57145C5.37055 14.6536 5.2143 14.8099 5.2143 15.0108V15.7251C5.2143 15.926 5.37055 16.0822 5.57145 16.0822H13.4286C13.6295 16.0822 13.7857 15.926 13.7857 15.7251V15.0108C13.7857 14.8099 13.6295 14.6536 13.4286 14.6536Z" fill="#272733"/>
</svg>
